<svg width="359.613" height="175.9pt" viewBox="0 0 269.71 175.9" class="displayed_equation" xmlns="http://www.w3.org/2000/svg">
  <path d="M 123.984375 124 L 2573.125 124 L 2573.125 1348.570313 L 123.984375 1348.570313 Z M 123.984375 124" transform="matrix(.1 0 0 -.1 0 175.9)" fill="none" stroke-width="7.97" stroke-linejoin="round" stroke="#000" stroke-miterlimit="10" />
  <path d="M 1144.453125 736.265625 C 1144.453125 961.734375 961.71875 1144.46875 736.25 1144.46875 C 510.820313 1144.46875 328.085938 961.734375 328.085938 736.265625 C 328.085938 510.835938 510.820313 328.101563 736.25 328.101563 C 961.71875 328.101563 1144.453125 510.835938 1144.453125 736.265625 Z M 1144.453125 736.265625" transform="matrix(.1 0 0 -.1 0 175.9)" fill="none" stroke-width="7.97" stroke-linejoin="round" stroke="#e14b3b" stroke-miterlimit="10" />
  <path d="M62.089844 97.269531L62.089844 97.605469C62.925781 97.605469 63.183594 97.726563 63.183594 98.542969L63.183594 103.21875C63.183594 104.121094 63.070313 104.265625 62.089844 104.265625L62.089844 104.601563 65.28125 104.601563C67.691406 104.601563 69.285156 103.460938 69.285156 100.898438 69.285156 98.171875 67.480469 97.269531 65.15625 97.269531zM64.210938 97.75C64.421875 97.726563 64.578125 97.726563 64.757813 97.726563 67.066406 97.726563 68.117188 98.875 68.117188 100.996094 68.117188 103.507813 66.898438 104.175781 64.867188 104.175781 64.644531 104.175781 64.433594 104.164063 64.210938 104.140625L64.210938 97.75M72.777344 99.1875C71.273438 99.1875 70.28125 100.28125 70.28125 101.898438 70.28125 103.707031 71.21875 104.710938 72.777344 104.710938 74.226563 104.710938 75.253906 103.730469 75.253906 101.855469 75.253906 100.203125 74.304688 99.1875 72.777344 99.1875zM72.734375 99.613281C73.726563 99.613281 74.226563 100.539063 74.226563 101.910156 74.226563 103.730469 73.738281 104.265625 72.824219 104.265625 71.863281 104.277344 71.316406 103.53125 71.316406 101.753906 71.316406 100.328125 71.886719 99.613281 72.734375 99.613281M77.128906 102.546875C76.601563 102.949219 76.210938 103.417969 76.210938 103.820313 76.210938 104.132813 76.460938 104.433594 76.835938 104.621094L76.835938 104.667969C76.234375 105.246094 75.933594 105.625 75.933594 105.996094 75.933594 106.609375 76.367188 107.222656 77.832031 107.222656 79.234375 107.222656 80.886719 106.707031 80.886719 105.214844 80.886719 103.929688 79.816406 103.886719 78.410156 103.886719 77.382813 103.886719 77.09375 103.773438 77.09375 103.4375 77.09375 103.25 77.273438 102.847656 77.382813 102.691406 77.675781 102.792969 77.988281 102.859375 78.34375 102.859375 79.515625 102.859375 80.320313 102.203125 80.320313 101.164063 80.320313 100.605469 80.074219 100.238281 79.917969 100.015625L79.917969 99.960938 80.964844 99.992188 80.964844 99.390625 79.527344 99.46875C79.527344 99.46875 79.023438 99.1875 78.289063 99.1875 77.105469 99.1875 76.269531 99.890625 76.269531 101.007813 76.269531 101.734375 76.59375 102.210938 77.128906 102.523438zM78.210938 99.589844C78.921875 99.589844 79.328125 100.195313 79.328125 101.097656 79.328125 102.15625 78.914063 102.46875 78.355469 102.46875 77.628906 102.46875 77.25 101.921875 77.25 100.960938 77.25 100.027344 77.628906 99.589844 78.210938 99.589844zM77.117188 104.710938C77.273438 104.710938 77.484375 104.722656 78.378906 104.734375 79.125 104.746094 80.320313 104.722656 80.320313 105.527344 80.320313 106.007813 79.792969 106.585938 78.476563 106.585938 77.339844 106.585938 76.804688 106.261719 76.804688 105.617188 76.804688 105.382813 76.882813 105.125 77.117188 104.710938M81.535156 102.769531L81.570313 104.6875 81.804688 104.6875 82.039063 104.433594 82.058594 104.433594C82.351563 104.554688 82.683594 104.722656 83.332031 104.722656 84.335938 104.722656 85.207031 104.320313 85.207031 103.273438 85.207031 102.445313 84.660156 102.035156 83.644531 101.5 82.707031 101.019531 82.339844 100.742188 82.339844 100.304688 82.339844 99.804688 82.726563 99.570313 83.242188 99.570313 83.921875 99.570313 84.335938 99.890625 84.582031 100.953125L84.882813 100.953125 84.847656 99.246094 84.625 99.246094 84.4375 99.480469 84.425781 99.480469C84.144531 99.34375 83.8125 99.1875 83.253906 99.1875 82.292969 99.1875 81.546875 99.679688 81.546875 100.59375 81.546875 101.421875 82.003906 101.8125 83.019531 102.324219 84.054688 102.835938 84.269531 103.050781 84.269531 103.574219 84.269531 104.097656 83.867188 104.308594 83.308594 104.308594 82.484375 104.308594 82.058594 103.917969 81.824219 102.769531L81.535156 102.769531" />
  <path d="M 2369.023438 736.265625 C 2369.023438 961.734375 2186.289063 1144.46875 1960.859375 1144.46875 C 1735.390625 1144.46875 1552.65625 961.734375 1552.65625 736.265625 C 1552.65625 510.835938 1735.390625 328.101563 1960.859375 328.101563 C 2186.289063 328.101563 2369.023438 510.835938 2369.023438 736.265625 Z M 2369.023438 736.265625" transform="matrix(.1 0 0 -.1 0 175.9)" fill="none" stroke-width="7.97" stroke-linejoin="round" stroke="#55a4e0" stroke-miterlimit="10" />
  <path d="M192.484375 104.335938C191.859375 105.019531 191.109375 105.421875 190.085938 105.421875 188.511719 105.421875 187.417969 104.460938 187.417969 102.230469 187.417969 100.242188 188.320313 99.015625 189.929688 99.015625 191.078125 99.015625 191.867188 99.628906 192.117188 101.089844L192.492188 101.089844 192.492188 98.535156 192.160156 98.535156C192.023438 98.757813 191.960938 98.9375 191.78125 98.9375 191.503906 98.9375 191.089844 98.535156 189.917969 98.535156 187.773438 98.535156 186.257813 99.910156 186.257813 102.339844 186.257813 104.515625 187.464844 106.125 189.761719 106.125 191.222656 106.125 192.148438 105.476563 192.753906 104.570313L192.484375 104.335938M196.636719 105.308594C196.703125 105.796875 196.8125 106.054688 197.304688 106.054688 197.875 106.054688 198.140625 105.820313 198.511719 105.285156L198.34375 105.109375C198.1875 105.273438 198.03125 105.386719 197.820313 105.386719 197.585938 105.386719 197.484375 105.296875 197.484375 104.839844L197.484375 102.308594C197.484375 101.148438 197.027344 100.589844 195.8125 100.589844 194.59375 100.589844 193.847656 101.191406 193.847656 101.816406 193.847656 102.183594 194.09375 102.351563 194.316406 102.351563 194.628906 102.351563 194.804688 102.183594 194.804688 101.839844 194.804688 101.167969 194.917969 100.933594 195.554688 100.933594 196.222656 100.933594 196.558594 101.304688 196.558594 102.273438L196.558594 102.765625C195.597656 103.066406 193.621094 103.355469 193.621094 104.828125 193.621094 105.542969 194.09375 106.078125 194.953125 106.078125 195.664063 106.078125 196.066406 105.765625 196.59375 105.308594zM196.558594 104.972656C196.179688 105.285156 195.777344 105.464844 195.410156 105.464844 194.929688 105.464844 194.605469 105.117188 194.605469 104.5625 194.605469 103.691406 195.542969 103.390625 196.558594 103.132813L196.558594 104.972656M201.769531 104.996094C201.492188 105.308594 201.34375 105.453125 200.988281 105.453125 200.554688 105.453125 200.453125 105.1875 200.453125 104.394531L200.453125 101.191406 201.714844 101.191406 201.714844 100.722656 200.453125 100.722656 200.464844 99.195313 200.171875 99.195313C199.773438 100.140625 199.4375 100.609375 198.914063 100.933594L198.914063 101.191406 199.527344 101.191406 199.527344 104.707031C199.527344 105.710938 199.851563 106.109375 200.597656 106.109375 201.3125 106.109375 201.546875 105.777344 201.980469 105.175781L201.769531 104.996094M202.535156 104.171875L202.570313 106.089844 202.804688 106.089844 203.039063 105.832031 203.058594 105.832031C203.351563 105.953125 203.683594 106.125 204.332031 106.125 205.335938 106.125 206.207031 105.71875 206.207031 104.671875 206.207031 103.847656 205.660156 103.433594 204.644531 102.898438 203.707031 102.417969 203.339844 102.140625 203.339844 101.703125 203.339844 101.203125 203.726563 100.96875 204.242188 100.96875 204.921875 100.96875 205.335938 101.292969 205.582031 102.351563L205.882813 102.351563 205.847656 100.644531 205.625 100.644531 205.4375 100.878906 205.425781 100.878906C205.144531 100.746094 204.8125 100.589844 204.253906 100.589844 203.292969 100.589844 202.546875 101.078125 202.546875 101.996094 202.546875 102.820313 203.003906 103.210938 204.019531 103.722656 205.054688 104.238281 205.269531 104.449219 205.269531 104.972656 205.269531 105.5 204.867188 105.710938 204.308594 105.710938 203.484375 105.710938 203.058594 105.320313 202.824219 104.171875L202.535156 104.171875M61.804688 25.300781L61.804688 24.898438C61.078125 24.898438 60.808594 24.585938 60.417969 23.699219L57.230469 16.398438 56.679688 16.398438 53.828125 23.148438C53.179688 24.679688 52.992188 24.898438 52.242188 24.898438L52.242188 25.300781 55.0625 25.300781 55.0625 24.898438C54.433594 24.898438 54.164063 24.816406 54.164063 24.4375 54.164063 24.195313 54.230469 23.996094 54.3125 23.78125L54.917969 22.355469 58.359375 22.355469 58.882813 23.566406C59.058594 23.96875 59.113281 24.210938 59.113281 24.398438 59.113281 24.871094 58.585938 24.898438 58.183594 24.898438L58.183594 25.300781zM58.15625 21.816406L55.117188 21.816406 56.636719 18.050781 56.679688 18.050781 58.15625 21.816406M65.296875 24.910156C64.328125 24.910156 64.261719 24.722656 64.261719 23.941406L64.261719 15.804688 63.925781 15.804688 62.148438 16.277344 62.148438 16.640625C62.148438 16.640625 62.351563 16.613281 62.578125 16.613281 62.914063 16.613281 63.144531 16.640625 63.144531 17.191406L63.144531 23.941406C63.144531 24.695313 63.089844 24.910156 62.203125 24.910156L62.203125 25.300781 65.296875 25.300781 65.296875 24.910156M69.097656 24.910156C68.128906 24.910156 68.0625 24.722656 68.0625 23.941406L68.0625 15.804688 67.726563 15.804688 65.949219 16.277344 65.949219 16.640625C65.949219 16.640625 66.152344 16.613281 66.378906 16.613281 66.714844 16.613281 66.945313 16.640625 66.945313 17.191406L66.945313 23.941406C66.945313 24.695313 66.890625 24.910156 66.003906 24.910156L66.003906 25.300781 69.097656 25.300781 69.097656 24.910156M73.070313 16.464844L73.070313 16.867188C74.078125 16.867188 74.390625 17.015625 74.390625 17.996094L74.390625 23.632813C74.390625 24.722656 74.253906 24.898438 73.070313 24.898438L73.070313 25.300781 76.917969 25.300781C79.820313 25.300781 81.746094 23.929688 81.746094 20.835938 81.746094 17.554688 79.566406 16.464844 76.769531 16.464844zM75.625 17.042969C75.882813 17.015625 76.070313 17.015625 76.285156 17.015625 79.070313 17.015625 80.332031 18.402344 80.332031 20.957031 80.332031 23.980469 78.867188 24.789063 76.417969 24.789063 76.148438 24.789063 75.894531 24.773438 75.625 24.746094L75.625 17.042969M84.351563 15.980469C83.878906 15.980469 83.582031 16.328125 83.582031 16.734375 83.582031 17.148438 83.890625 17.5 84.351563 17.5 84.820313 17.5 85.117188 17.148438 85.117188 16.734375 85.117188 16.328125 84.820313 15.980469 84.351563 15.980469zM85.855469 24.921875C84.953125 24.921875 84.886719 24.722656 84.886719 23.941406L84.886719 18.816406 84.539063 18.816406 82.84375 19.195313 82.84375 19.585938C82.84375 19.585938 82.992188 19.558594 83.179688 19.558594 83.570313 19.558594 83.773438 19.609375 83.773438 20.1875L83.773438 23.941406C83.773438 24.707031 83.730469 24.921875 82.828125 24.921875L82.828125 25.300781 85.855469 25.300781 85.855469 24.921875M86.550781 18.9375L86.550781 19.503906 87.570313 19.503906 87.570313 23.699219C87.570313 24.746094 87.421875 24.910156 86.441406 24.910156L86.441406 25.300781 89.9375 25.300781 89.9375 24.910156C88.957031 24.910156 88.703125 24.746094 88.703125 23.699219L88.703125 19.503906 91.632813 19.503906 91.632813 23.699219C91.632813 24.746094 91.484375 24.910156 90.503906 24.910156L90.503906 25.300781 94.121094 25.300781 94.121094 24.910156C93.003906 24.910156 92.75 24.746094 92.75 23.699219L92.75 19.503906 94.390625 19.503906 94.390625 18.9375 92.75 18.9375 92.75 17.742188C92.75 16.613281 92.898438 16.210938 93.394531 16.210938 94.066406 16.210938 94.132813 17.230469 94.808594 17.230469 95.117188 17.230469 95.359375 17.042969 95.359375 16.652344 95.359375 16.046875 94.726563 15.710938 93.851563 15.710938 92.910156 15.710938 92.425781 16.074219 92.0625 16.691406 91.714844 17.3125 91.632813 17.917969 91.632813 18.9375L88.703125 18.9375 88.703125 17.796875C88.703125 16.664063 88.902344 16.277344 89.402344 16.277344 89.671875 16.277344 89.789063 16.382813 90.058594 16.746094 90.328125 17.109375 90.476563 17.296875 90.828125 17.296875 91.121094 17.296875 91.378906 17.109375 91.378906 16.707031 91.378906 16.113281 90.734375 15.765625 89.859375 15.765625 88.902344 15.765625 88.378906 16.15625 88.015625 16.773438 87.664063 17.390625 87.570313 17.917969 87.570313 18.9375L86.550781 18.9375M99.980469 23.378906C99.550781 23.941406 99.132813 24.425781 98.046875 24.425781 96.96875 24.425781 95.945313 23.578125 95.945313 21.722656L100.195313 21.722656C100.128906 19.839844 99.160156 18.777344 97.695313 18.777344 96.121094 18.777344 94.859375 19.851563 94.859375 22.097656 94.859375 24.265625 96.109375 25.433594 97.722656 25.433594 99.109375 25.433594 99.753906 24.585938 100.238281 23.566406zM95.933594 21.226563C96.039063 19.976563 96.578125 19.316406 97.492188 19.316406 98.449219 19.316406 98.890625 20.230469 98.933594 21.226563L95.933594 21.226563M103.160156 18.816406L102.839844 18.816406 101.171875 19.222656 101.171875 19.597656C101.171875 19.597656 101.320313 19.570313 101.589844 19.570313 102.070313 19.570313 102.070313 19.8125 102.070313 20.296875L102.070313 23.996094C102.070313 24.746094 101.976563 24.910156 101.089844 24.910156L101.089844 25.300781 104.453125 25.300781 104.453125 24.910156C103.445313 24.910156 103.1875 24.773438 103.1875 23.929688L103.1875 20.863281C103.511719 20.324219 103.941406 19.757813 104.25 19.757813 104.414063 19.757813 104.679688 20.214844 105.125 20.214844 105.421875 20.214844 105.714844 20.003906 105.714844 19.492188 105.714844 19.03125 105.460938 18.738281 104.9375 18.738281 104.289063 18.738281 103.886719 19.207031 103.203125 20.203125L103.160156 20.203125 103.160156 18.816406M111.179688 23.378906C110.753906 23.941406 110.335938 24.425781 109.246094 24.425781 108.167969 24.425781 107.148438 23.578125 107.148438 21.722656L111.398438 21.722656C111.328125 19.839844 110.359375 18.777344 108.894531 18.777344 107.320313 18.777344 106.058594 19.851563 106.058594 22.097656 106.058594 24.265625 107.308594 25.433594 108.921875 25.433594 110.308594 25.433594 110.953125 24.585938 111.4375 23.566406zM107.132813 21.226563C107.242188 19.976563 107.777344 19.316406 108.695313 19.316406 109.648438 19.316406 110.09375 20.230469 110.132813 21.226563L107.132813 21.226563M118.367188 21.171875C118.367188 19.625 117.789063 18.777344 116.566406 18.777344 115.71875 18.777344 115.128906 19.261719 114.402344 19.90625L114.347656 19.90625 114.359375 18.816406 114.050781 18.816406 112.34375 19.207031 112.34375 19.597656C112.34375 19.597656 112.476563 19.570313 112.707031 19.570313 113.070313 19.570313 113.273438 19.679688 113.273438 20.160156L113.273438 23.941406C113.273438 24.695313 113.230469 24.921875 112.328125 24.921875L112.328125 25.300781 115.410156 25.300781 115.410156 24.921875C114.441406 24.921875 114.386719 24.695313 114.386719 23.941406L114.386719 20.484375C114.792969 20.121094 115.289063 19.636719 116.015625 19.636719 116.621094 19.636719 117.253906 19.894531 117.253906 21.507813L117.253906 23.941406C117.253906 24.695313 117.214844 24.921875 116.257813 24.921875L116.257813 25.300781 119.363281 25.300781 119.363281 24.921875C118.464844 24.921875 118.367188 24.695313 118.367188 23.941406L118.367188 21.171875M123.539063 24.089844C123.203125 24.464844 123.03125 24.640625 122.597656 24.640625 122.074219 24.640625 121.953125 24.320313 121.953125 23.363281L121.953125 19.503906 123.472656 19.503906 123.472656 18.9375 121.953125 18.9375 121.96875 17.097656 121.617188 17.097656C121.132813 18.238281 120.730469 18.804688 120.097656 19.195313L120.097656 19.503906 120.839844 19.503906 120.839844 23.742188C120.839844 24.949219 121.226563 25.433594 122.128906 25.433594 122.988281 25.433594 123.273438 25.03125 123.796875 24.304688L123.539063 24.089844M127.644531 16.464844L127.644531 16.867188C128.507813 16.867188 128.789063 17.015625 128.789063 17.808594L128.789063 23.59375C128.789063 24.722656 128.640625 24.898438 127.59375 24.898438L127.59375 25.300781 131.382813 25.300781 131.382813 24.898438C130.296875 24.898438 130.027344 24.746094 130.027344 23.644531L130.027344 21.34375C130.171875 21.414063 130.523438 21.453125 130.792969 21.453125 132.554688 21.453125 134.316406 20.796875 134.316406 18.695313 134.316406 16.90625 132.714844 16.464844 130.992188 16.464844zM130.027344 17.042969C130.308594 17.015625 130.5625 16.988281 130.832031 16.988281 132.285156 16.988281 132.984375 17.675781 132.984375 18.882813 132.984375 20.445313 132.203125 20.902344 130.753906 20.902344 130.484375 20.902344 130.171875 20.875 130.027344 20.847656L130.027344 17.042969M139.882813 23.378906C139.453125 23.941406 139.035156 24.425781 137.945313 24.425781 136.867188 24.425781 135.847656 23.578125 135.847656 21.722656L140.097656 21.722656C140.03125 19.839844 139.0625 18.777344 137.59375 18.777344 136.023438 18.777344 134.757813 19.851563 134.757813 22.097656 134.757813 24.265625 136.007813 25.433594 137.621094 25.433594 139.007813 25.433594 139.652344 24.585938 140.136719 23.566406zM135.832031 21.226563C135.941406 19.976563 136.476563 19.316406 137.394531 19.316406 138.347656 19.316406 138.792969 20.230469 138.832031 21.226563L135.832031 21.226563M144.441406 24.089844C144.105469 24.464844 143.929688 24.640625 143.496094 24.640625 142.976563 24.640625 142.851563 24.320313 142.851563 23.363281L142.851563 19.503906 144.371094 19.503906 144.371094 18.9375 142.851563 18.9375 142.867188 17.097656 142.515625 17.097656C142.03125 18.238281 141.628906 18.804688 140.996094 19.195313L140.996094 19.503906 141.738281 19.503906 141.738281 23.742188C141.738281 24.949219 142.128906 25.433594 143.027344 25.433594 143.890625 25.433594 144.171875 25.03125 144.695313 24.304688L144.441406 24.089844M145.226563 23.09375L145.265625 25.40625 145.546875 25.40625 145.828125 25.097656 145.855469 25.097656C146.207031 25.246094 146.609375 25.449219 147.390625 25.449219 148.601563 25.449219 149.648438 24.964844 149.648438 23.699219 149.648438 22.703125 148.992188 22.207031 147.765625 21.5625 146.636719 20.984375 146.191406 20.648438 146.191406 20.121094 146.191406 19.515625 146.664063 19.234375 147.28125 19.234375 148.101563 19.234375 148.601563 19.625 148.894531 20.902344L149.257813 20.902344 149.21875 18.84375 148.949219 18.84375 148.722656 19.128906 148.707031 19.128906C148.371094 18.964844 147.96875 18.777344 147.296875 18.777344 146.140625 18.777344 145.238281 19.367188 145.238281 20.472656 145.238281 21.46875 145.789063 21.9375 147.011719 22.554688 148.265625 23.175781 148.519531 23.429688 148.519531 24.0625 148.519531 24.695313 148.035156 24.949219 147.363281 24.949219 146.367188 24.949219 145.855469 24.480469 145.574219 23.09375L145.226563 23.09375M157.34375 24.464844C157.421875 25.058594 157.558594 25.367188 158.148438 25.367188 158.835938 25.367188 159.15625 25.085938 159.601563 24.4375L159.398438 24.222656C159.210938 24.425781 159.023438 24.5625 158.765625 24.5625 158.484375 24.5625 158.363281 24.453125 158.363281 23.902344L158.363281 20.847656C158.363281 19.449219 157.8125 18.777344 156.347656 18.777344 154.882813 18.777344 153.980469 19.503906 153.980469 20.257813 153.980469 20.699219 154.277344 20.902344 154.546875 20.902344 154.921875 20.902344 155.136719 20.699219 155.136719 20.285156 155.136719 19.476563 155.273438 19.195313 156.039063 19.195313 156.84375 19.195313 157.246094 19.636719 157.246094 20.808594L157.246094 21.398438C156.09375 21.761719 153.710938 22.113281 153.710938 23.886719 153.710938 24.746094 154.277344 25.394531 155.3125 25.394531 156.171875 25.394531 156.65625 25.015625 157.289063 24.464844zM157.246094 24.0625C156.789063 24.4375 156.304688 24.65625 155.863281 24.65625 155.285156 24.65625 154.894531 24.238281 154.894531 23.566406 154.894531 22.515625 156.023438 22.152344 157.246094 21.84375L157.246094 24.0625M163.640625 24.089844C163.304688 24.464844 163.128906 24.640625 162.699219 24.640625 162.175781 24.640625 162.054688 24.320313 162.054688 23.363281L162.054688 19.503906 163.574219 19.503906 163.574219 18.9375 162.054688 18.9375 162.066406 17.097656 161.71875 17.097656C161.234375 18.238281 160.828125 18.804688 160.195313 19.195313L160.195313 19.503906 160.9375 19.503906 160.9375 23.742188C160.9375 24.949219 161.328125 25.433594 162.226563 25.433594 163.089844 25.433594 163.371094 25.03125 163.894531 24.304688L163.640625 24.089844M171.039063 24.089844C170.703125 24.464844 170.53125 24.640625 170.097656 24.640625 169.574219 24.640625 169.453125 24.320313 169.453125 23.363281L169.453125 19.503906 170.972656 19.503906 170.972656 18.9375 169.453125 18.9375 169.46875 17.097656 169.117188 17.097656C168.632813 18.238281 168.230469 18.804688 167.597656 19.195313L167.597656 19.503906 168.339844 19.503906 168.339844 23.742188C168.339844 24.949219 168.726563 25.433594 169.628906 25.433594 170.488281 25.433594 170.773438 25.03125 171.296875 24.304688L171.039063 24.089844M173.761719 20.472656C174.421875 19.867188 174.90625 19.636719 175.429688 19.636719 176.519531 19.636719 176.664063 20.566406 176.664063 21.667969L176.664063 23.996094C176.664063 24.640625 176.613281 24.910156 175.683594 24.910156L175.683594 25.300781 178.777344 25.300781 178.777344 24.910156C177.929688 24.910156 177.78125 24.65625 177.78125 23.941406L177.78125 21.265625C177.78125 20.160156 177.527344 18.777344 175.980469 18.777344 175.265625 18.777344 174.648438 19.085938 173.800781 19.878906L173.761719 19.878906 173.761719 15.804688 173.398438 15.804688 171.59375 16.277344 171.59375 16.652344C171.59375 16.652344 171.769531 16.625 171.984375 16.625 172.347656 16.625 172.644531 16.691406 172.644531 17.164063L172.644531 24.050781C172.644531 24.804688 172.402344 24.910156 171.703125 24.910156L171.703125 25.300781 174.757813 25.300781 174.757813 24.910156C173.828125 24.910156 173.761719 24.695313 173.761719 23.996094L173.761719 20.472656M184.679688 23.378906C184.253906 23.941406 183.835938 24.425781 182.746094 24.425781 181.667969 24.425781 180.648438 23.578125 180.648438 21.722656L184.898438 21.722656C184.828125 19.839844 183.859375 18.777344 182.394531 18.777344 180.820313 18.777344 179.558594 19.851563 179.558594 22.097656 179.558594 24.265625 180.808594 25.433594 182.421875 25.433594 183.808594 25.433594 184.453125 24.585938 184.9375 23.566406zM180.632813 21.226563C180.742188 19.976563 181.277344 19.316406 182.195313 19.316406 183.148438 19.316406 183.59375 20.230469 183.632813 21.226563L180.632813 21.226563M194.417969 19.019531L194.324219 16.328125 193.972656 16.328125C193.90625 16.613281 193.773438 16.71875 193.554688 16.71875 193.234375 16.71875 192.9375 16.304688 191.714844 16.304688 190.316406 16.316406 189.160156 17.070313 189.160156 18.480469 189.160156 19.894531 190.246094 20.539063 191.324219 21.15625 192.425781 21.789063 193.554688 22.261719 193.554688 23.445313 193.554688 24.464844 192.925781 24.871094 191.914063 24.871094 190.542969 24.882813 189.859375 24.453125 189.386719 22.597656L188.96875 22.597656 189.09375 25.503906 189.507813 25.503906C189.523438 25.234375 189.683594 25.058594 189.871094 25.058594 190.179688 25.058594 190.707031 25.460938 192.105469 25.460938 193.664063 25.460938 194.835938 24.613281 194.835938 23.054688 194.835938 21.453125 193.503906 20.847656 192.304688 20.175781 191.296875 19.597656 190.328125 19.113281 190.328125 18.105469 190.328125 17.273438 190.851563 16.839844 191.769531 16.839844 193.128906 16.828125 193.636719 17.539063 194.015625 19.019531L194.417969 19.019531M199.242188 24.089844C198.90625 24.464844 198.730469 24.640625 198.296875 24.640625 197.773438 24.640625 197.652344 24.320313 197.652344 23.363281L197.652344 19.503906 199.171875 19.503906 199.171875 18.9375 197.652344 18.9375 197.667969 17.097656 197.316406 17.097656C196.832031 18.238281 196.429688 18.804688 195.796875 19.195313L195.796875 19.503906 196.539063 19.503906 196.539063 23.742188C196.539063 24.949219 196.925781 25.433594 197.828125 25.433594 198.6875 25.433594 198.972656 25.03125 199.496094 24.304688L199.242188 24.089844M202.871094 18.777344C201.054688 18.777344 199.859375 20.09375 199.859375 22.046875 199.859375 24.222656 200.988281 25.433594 202.871094 25.433594 204.617188 25.433594 205.855469 24.253906 205.855469 21.992188 205.855469 20.003906 204.714844 18.777344 202.871094 18.777344zM202.816406 19.289063C204.011719 19.289063 204.617188 20.40625 204.617188 22.058594 204.617188 24.253906 204.027344 24.898438 202.921875 24.898438 201.765625 24.910156 201.109375 24.007813 201.109375 21.871094 201.109375 20.148438 201.792969 19.289063 202.816406 19.289063M208.761719 18.816406L208.4375 18.816406 206.769531 19.222656 206.769531 19.597656C206.769531 19.597656 206.917969 19.570313 207.1875 19.570313 207.671875 19.570313 207.671875 19.8125 207.671875 20.296875L207.671875 23.996094C207.671875 24.746094 207.578125 24.910156 206.691406 24.910156L206.691406 25.300781 210.050781 25.300781 210.050781 24.910156C209.042969 24.910156 208.789063 24.773438 208.789063 23.929688L208.789063 20.863281C209.109375 20.324219 209.539063 19.757813 209.851563 19.757813 210.011719 19.757813 210.28125 20.214844 210.726563 20.214844 211.019531 20.214844 211.316406 20.003906 211.316406 19.492188 211.316406 19.03125 211.0625 18.738281 210.535156 18.738281 209.890625 18.738281 209.488281 19.207031 208.800781 20.203125L208.761719 20.203125 208.761719 18.816406M216.882813 23.378906C216.453125 23.941406 216.035156 24.425781 214.945313 24.425781 213.867188 24.425781 212.847656 23.578125 212.847656 21.722656L217.097656 21.722656C217.03125 19.839844 216.0625 18.777344 214.59375 18.777344 213.023438 18.777344 211.757813 19.851563 211.757813 22.097656 211.757813 24.265625 213.007813 25.433594 214.621094 25.433594 216.007813 25.433594 216.652344 24.585938 217.136719 23.566406zM212.832031 21.226563C212.941406 19.976563 213.476563 19.316406 214.394531 19.316406 215.347656 19.316406 215.792969 20.230469 215.832031 21.226563L212.832031 21.226563" />
</svg>